grf
version=1
nRows=15
nColumns=37
inDegrees=no
endheader
time	ground_force_1_vx	ground_force_1_vy	ground_force_1_vz	ground_force_1_px	ground_force_1_py	ground_force_1_pz	ground_moment_1_mx	ground_moment_1_my	ground_moment_1_mz	ground_force_2_vx	ground_force_2_vy	ground_force_2_vz	ground_force_2_px	ground_force_2_py	ground_force_2_pz	ground_moment_2_mx	ground_moment_2_my	ground_moment_2_mz	ground_force_3_vx	ground_force_3_vy	ground_force_3_vz	ground_force_3_px	ground_force_3_py	ground_force_3_pz	ground_moment_3_mx	ground_moment_3_my	ground_moment_3_mz	ground_force_4_vx	ground_force_4_vy	ground_force_4_vz	ground_force_4_px	ground_force_4_py	ground_force_4_pz	ground_moment_4_mx	ground_moment_4_my	ground_moment_4_mz
      2.98000000	      0.00000000	     -0.00000000	      0.00000000	      0.00000000	      0.00000000	      0.00000000	      0.00000000	      0.00000000	      0.00000000	      2.22506571	     23.07439041	   -344.47561646	   -364.60063554	  -1075.48673570	      0.00000000	      0.00000000	     -0.00000000	   8265.97962050	      7.59261705	    -27.10954923	   -422.53524780	   -389.16396427	   -655.26705753	      0.00000000	      0.00000000	     -0.00000000	 -10182.22710621	    -35.12526563	     16.05184862	     74.89811707	    608.34401730	   -566.95431847	      0.00000000	      0.00000000	      0.00000000	     89.76768186
      2.99000000	      0.00000000	     -0.00000000	      0.00000000	      0.00000000	      0.00000000	      0.00000000	      0.00000000	      0.00000000	      0.00000000	      3.15940571	     23.17390442	   -343.17105103	   -364.26590807	  -1074.94303794	      0.00000000	      0.00000000	      0.00000000	   8378.98211300	      7.76473142	    -27.15133163	   -423.87005615	   -389.60213941	   -655.49818669	      0.00000000	      0.00000000	     -0.00000000	 -10259.27838205	    -35.41063169	     16.00959515	     74.60660553	    609.46207723	   -560.10657446	      0.00000000	      0.00000000	     -0.00000000	   -116.19722966
      3.00000000	      0.00000000	     -0.00000000	      0.00000000	      0.00000000	      0.00000000	      0.00000000	      0.00000000	      0.00000000	      0.00000000	      4.09877300	     22.50787926	   -343.18237305	   -364.81782773	  -1075.66591495	      0.00000000	     -0.00000000	      0.00000000	   8248.31875485	      7.14368916	    -27.25462785	   -424.03491211	   -389.97163204	   -655.43157707	      0.00000000	      0.00000000	     -0.00000000	 -10103.99566642	    -35.16685725	     16.24195597	     75.49268341	    605.49594668	   -559.78926418	      0.00000000	      0.00000000	     -0.00000000	   -173.65918620
      3.01000000	      0.00000000	     -0.00000000	      0.00000000	      0.00000000	      0.00000000	      0.00000000	      0.00000000	      0.00000000	      0.00000000	      5.54065561	     20.88428688	   -343.21887207	   -365.30365632	  -1074.77176810	      0.00000000	      0.00000000	      0.00000000	   8391.87903875	      6.35814045	    -27.46322687	   -426.11099243	   -390.60458403	   -655.51998495	      0.00000000	      0.00000000	     -0.00000000	 -10129.93616911	    -35.32663587	     16.00508236	     76.34136963	    600.46330618	   -562.33357849	      0.00000000	      0.00000000	      0.00000000	     81.59233949
      3.02000000	      0.00000000	     -0.00000000	      0.00000000	      0.00000000	      0.00000000	      0.00000000	      0.00000000	      0.00000000	      0.00000000	      5.22113991	     19.69781876	   -342.04556274	   -365.55822054	  -1074.11154108	      0.00000000	      0.00000000	      0.00000000	   8290.70164551	      5.84553385	    -27.24490789	   -429.84255981	   -391.15635003	   -656.11503020	      0.00000000	      0.00000000	     -0.00000000	  -9979.93780870	    -35.54829647	     16.19914175	     76.30515289	    603.56771463	   -561.74117933	      0.00000000	      0.00000000	      0.00000000	     19.81645971
      3.03000000	      0.00000000	     -0.00000000	      0.00000000	      0.00000000	      0.00000000	      0.00000000	      0.00000000	      0.00000000	      0.00000000	      4.95795774	     19.52858162	   -341.02206421	   -366.50259879	  -1073.70635855	      0.00000000	      0.00000000	      0.00000000	   8493.31529652	      6.48499440	    -27.41254672	   -432.76446533	   -391.53974409	   -655.66456809	      0.00000000	      0.00000000	     -0.00000000	 -10029.61258804	    -35.41666269	     16.37000775	     75.28795624	    605.70283649	   -562.46437465	      0.00000000	      0.00000000	     -0.00000000	   -107.72526431
      3.04000000	      0.00000000	     -0.00000000	      0.00000000	      0.00000000	      0.00000000	      0.00000000	      0.00000000	      0.00000000	      0.00000000	      4.59652758	     19.74456787	   -341.49041748	   -366.16182974	  -1074.65204159	      0.00000000	      0.00000000	      0.00000000	   8425.86681182	      6.95276452	    -27.20747246	   -434.49316406	   -391.91141800	   -655.86355876	      0.00000000	      0.00000000	     -0.00000000	  -9988.37907951	    -35.32749416	     16.23735927	     76.15661621	    602.96644812	   -563.27657664	      0.00000000	      0.00000000	      0.00000000	     83.52023756
      3.05000000	      0.00000000	     -0.00000000	      0.00000000	      0.00000000	      0.00000000	      0.00000000	      0.00000000	      0.00000000	      0.00000000	      4.59222746	     19.46865654	   -341.84469604	   -366.26479742	  -1072.94722256	      0.00000000	     -0.00000000	      0.00000000	   8438.32267336	      6.24343727	    -27.46804483	   -436.25656128	   -393.36867107	   -656.35765107	      0.00000000	      0.00000000	     -0.00000000	  -9801.07153708	    -35.38705683	     16.33158039	     75.23848724	    605.05596729	   -563.31334197	      0.00000000	      0.00000000	     -0.00000000	    -57.74003190
      3.06000000	      0.00000000	     -0.00000000	      0.00000000	      0.00000000	      0.00000000	      0.00000000	      0.00000000	      0.00000000	      0.00000000	      5.27572775	     18.80241585	   -345.76318359	   -367.49696875	  -1071.66823419	      0.00000000	      0.00000000	      0.00000000	   8294.64135646	      6.25617976	    -27.86343057	   -439.05001831	   -393.76803071	   -656.97525293	      0.00000000	      0.00000000	     -0.00000000	  -9862.69058866	    -35.02097562	     15.96353456	     76.00485229	    602.29723533	   -562.04398777	      0.00000000	      0.00000000	     -0.00000000	     -8.83596001
      3.07000000	      0.00000000	     -0.00000000	      0.00000000	      0.00000000	      0.00000000	      0.00000000	      0.00000000	      0.00000000	      0.00000000	      6.37657595	     18.33011246	   -352.93298340	   -368.36373899	  -1071.95074098	      0.00000000	      0.00000000	      0.00000000	   8234.20768397	      6.73403211	    -27.81735670	   -443.45397949	   -393.88645149	   -657.25240241	      0.00000000	      0.00000000	     -0.00000000	  -9566.92857042	    -35.16105130	     16.10456774	     75.43949890	    605.59227380	   -562.39389983	      0.00000000	      0.00000000	     -0.00000000	    -33.44503078
      3.08000000	      0.00000000	     -0.00000000	      0.00000000	      0.00000000	      0.00000000	      0.00000000	      0.00000000	      0.00000000	      0.00000000	      7.30759478	     17.64781952	   -357.41809082	   -368.81086514	  -1072.04270776	      0.00000000	      0.00000000	      0.00000000	   8204.66740864	      6.38329781	    -28.52018603	   -451.60473633	   -394.29676910	   -656.97893674	      0.00000000	      0.00000000	     -0.00000000	  -9631.36841863	    -35.08275465	     15.97150346	     75.95901489	    604.83808396	   -565.17198632	      0.00000000	      0.00000000	      0.00000000	     93.08269726
      3.09000000	      0.00000000	     -0.00000000	      0.00000000	      0.00000000	      0.00000000	      0.00000000	      0.00000000	      0.00000000	      0.00000000	      7.57917690	     16.70638084	   -362.40676880	   -368.62752097	  -1072.59234043	      0.00000000	      0.00000000	      0.00000000	   8133.94750620	      5.71620394	    -29.85273030	   -461.97198486	   -394.31346005	   -657.23080068	      0.00000000	      0.00000000	     -0.00000000	  -9375.31046199	    -35.15353252	     16.18354914	     75.10375977	    605.82932447	   -563.80424897	      0.00000000	      0.00000000	      0.00000000	     25.92628880
      3.10000000	      0.00000000	     -0.00000000	      0.00000000	      0.00000000	      0.00000000	      0.00000000	      0.00000000	      0.00000000	      0.00000000	      7.21892262	     16.57825470	   -365.71078491	   -371.03219088	  -1069.60080972	      0.00000000	      0.00000000	      0.00000000	   8148.41744180	      5.63493652	    -30.61603786	   -471.76065063	   -394.53656122	   -656.94678018	      0.00000000	      0.00000000	     -0.00000000	  -9372.89219923	    -35.42206430	     16.42823529	     74.73912048	    608.64956191	   -566.46161014	      0.00000000	      0.00000000	     -0.00000000	     -3.63149187
      3.11000000	      0.00000000	     -0.00000000	      0.00000000	      0.00000000	      0.00000000	      0.00000000	      0.00000000	      0.00000000	      0.00000000	      7.49024439	     16.74964523	   -376.50344849	   -371.98829627	  -1070.34777311	      0.00000000	      0.00000000	      0.00000000	   8043.84674188	      6.33410983	    -32.23741968	   -484.49584961	   -394.11660086	   -656.47933085	      0.00000000	      0.00000000	     -0.00000000	  -9205.86587714	    -35.51164488	     15.96453882	     76.16981506	    602.27367059	   -560.81988189	      0.00000000	      0.00000000	     -0.00000000	    -70.01089209
      3.12000000	      0.00000000	     -0.00000000	      0.00000000	      0.00000000	      0.00000000	      0.00000000	      0.00000000	      0.00000000	      0.00000000	      7.58289337	     17.65440750	   -388.73327637	   -372.01108619	  -1070.01301271	      0.00000000	     -0.00000000	      0.00000000	   8166.72519707	      8.87441832	    -31.97910768	   -496.02908325	   -395.52696628	   -657.06328195	      0.00000000	      0.00000000	     -0.00000000	  -9035.17258231	    -35.42555096	     16.10456776	     74.41448975	    611.14135578	   -563.03474523	      0.00000000	      0.00000000	     -0.00000000	   -128.30178500
